<svg width="48" height="33" viewBox="0 0 48 33" fill="none" xmlns="http://www.w3.org/2000/svg">
<path opacity="0.65" d="M3.3287 18.053 C 1.11059,16.6027 -0.552999 14.8965 0.172151 12.2092C0.982613 9.22324 3.41401 7.68763 6.18665 7.09045C8.40475 6.62123 9.94037 5.72546 11.604 4.06188C15.5283 0.0522236 20.6043 0.436132 25.3391 2.22768C28.4104 3.37939 31.1403 4.40312 34.5528 4.06188C36.7709 3.80594 39.3303 4.65906 41.4631 5.6828C45.7287 7.77294 46.6244 11.5267 44.321 15.6216C45.0461 16.3894 45.814 17.1146 46.4965 17.925C49.0132 20.783 48.3307 25.0912 44.7476 26.0723C40.9085 27.1387 37.6667 29.3568 34.0836 30.7645C27.088 33.5371 20.2204 33.3238 13.9927 28.3331C13.4808 27.9492 12.585 27.8212 11.9025 27.9492C8.31943 28.6743 5.4615 27.352 3.07277 24.878C1.1106 22.9158 1.23856 20.911 3.3287 18.053ZM13.6514 25.0912C15.1017 26.2856 16.1681 27.6506 17.5758 28.3331C23.2917 31.1484 29.2208 31.2763 34.7234 28.1198C37.4107 26.5415 39.8421 25.0912 42.9987 24.622C45.9846 24.1528 46.7097 21.4228 44.6623 19.1621C43.6385 18.053 42.3162 17.2425 41.0365 16.2615C41.2924 15.9202 41.5057 15.6643 41.719 15.4083C44.3637 11.9959 43.7665 9.2659 39.9274 7.34639C37.1548 5.93874 34.2542 5.85343 31.2257 6.49327C30.2019 6.70655 28.8369 6.49327 27.9838 5.93874C25.3818 4.31782 22.6518 3.33673 19.5806 3.37939C16.1681 3.42204 13.3102 4.27516 11.6466 7.64498C11.3907 8.15685 10.4949 8.45544 9.85504 8.66872C7.93553 9.30855 5.84539 9.6498 4.0965 10.5882C3.20072 11.0574 2.34761 12.6357 2.39026 13.6595C2.43292 14.5552 3.66994 15.6643 4.60837 16.1762C5.88805 16.8586 7.38101 17.0293 9.08724 17.4558C7.97819 18.0104 7.12507 18.3943 6.22929 18.8208C3.24338 20.3564 3.03012 22.7025 5.84541 24.622C8.3621 26.3283 11.0494 26.3709 13.6514 25.0912Z" fill="#0E1016"/>
</svg>
