<svg width="48" height="32" viewBox="0 0 48 32" fill="none" xmlns="http://www.w3.org/2000/svg">
<path opacity="0.65" d="M48 -0.000976562C48 9.6144 48 19.0375 48 28.3836C45.4231 27.1144 42.9615 25.5759 40.3077 24.6529C35.5385 23.0375 30.9615 23.9221 26.6539 26.4606C23.2308 28.4606 20.0384 30.8452 16.0384 31.6529C10.3077 32.7682 5.26921 31.1144 0.653827 27.8836C0.307673 27.6529 0.0384521 27.0759 0.0384521 26.6529C-9.39059e-06 17.8067 0 8.99902 0 0.0374851C16 -0.000976416 31.9231 -0.000976562 48 -0.000976562ZM1.92308 1.88364C1.92308 9.9221 1.92307 17.8452 1.96153 25.7682C1.96153 26.1529 2.38461 26.6913 2.73076 26.9221C6.73076 29.5375 11.0769 30.6913 15.8846 29.6913C19.6923 28.9221 22.7308 26.5759 25.9615 24.6913C30.1154 22.2682 34.5384 21.2682 39.2308 22.4221C41.5384 22.999 43.7692 23.999 46.0384 24.8452C46.0384 17.3067 46.0384 9.65287 46.0384 1.9221C31.3846 1.88364 16.8077 1.88364 1.92308 1.88364Z" fill="#0E1016"/>
</svg>
